<?xml version="1.0" encoding="UTF-8" standalone="no"?>
<!DOCTYPE svg PUBLIC "-//W3C//DTD SVG 1.1//EN"
 "http://www.w3.org/Graphics/SVG/1.1/DTD/svg11.dtd">
<!-- Generated by graphviz version 2.50.0 (0)
 -->
<!-- Pages: 1 -->
<svg width="313pt" height="188pt"
 viewBox="0.00 0.00 313.00 188.00" xmlns="http://www.w3.org/2000/svg" xmlns:xlink="http://www.w3.org/1999/xlink">
<g id="graph0" class="graph" transform="scale(1 1) rotate(0) translate(4 184)">
<polygon fill="white" stroke="transparent" points="-4,4 -4,-184 309,-184 309,4 -4,4"/>
<!-- 3495382476768370406 -->
<g id="node1" class="node">
<title>3495382476768370406</title>
<polygon fill="none" stroke="black" points="231,-180 74,-180 74,-144 231,-144 231,-180"/>
<text text-anchor="middle" x="152.5" y="-157" font-family="Helvetica,sans-Serif" font-size="20.00">Max(Projection)</text>
</g>
<!-- &#45;6247079956867810573 -->
<g id="node2" class="node">
<title>&#45;6247079956867810573</title>
<polygon fill="none" stroke="black" points="305,-108 0,-108 0,-72 305,-72 305,-108"/>
<text text-anchor="middle" x="152.5" y="-85" font-family="Helvetica,sans-Serif" font-size="20.00">Projection(ReadCSV, DepDelay)</text>
</g>
<!-- &#45;6247079956867810573&#45;&gt;3495382476768370406 -->
<g id="edge1" class="edge">
<title>&#45;6247079956867810573&#45;&gt;3495382476768370406</title>
<path fill="none" stroke="black" d="M152.5,-108.3C152.5,-116.02 152.5,-125.29 152.5,-133.89"/>
<polygon fill="black" stroke="black" points="149,-133.9 152.5,-143.9 156,-133.9 149,-133.9"/>
</g>
<!-- &#45;8640647748099632978 -->
<g id="node3" class="node">
<title>&#45;8640647748099632978</title>
<polygon fill="none" stroke="black" points="205.5,-36 99.5,-36 99.5,0 205.5,0 205.5,-36"/>
<text text-anchor="middle" x="152.5" y="-13" font-family="Helvetica,sans-Serif" font-size="20.00">ReadCSV</text>
</g>
<!-- &#45;8640647748099632978&#45;&gt;&#45;6247079956867810573 -->
<g id="edge2" class="edge">
<title>&#45;8640647748099632978&#45;&gt;&#45;6247079956867810573</title>
<path fill="none" stroke="black" d="M152.5,-36.3C152.5,-44.02 152.5,-53.29 152.5,-61.89"/>
<polygon fill="black" stroke="black" points="149,-61.9 152.5,-71.9 156,-61.9 149,-61.9"/>
</g>
</g>
</svg>
